<mxfile host="65bd71144e">
    <diagram id="R9lZvX5LPHoqeBm0NEup" name="Page-1">
        <mxGraphModel dx="509" dy="653" grid="1" gridSize="10" guides="1" tooltips="1" connect="1" arrows="1" fold="1" page="1" pageScale="1" pageWidth="850" pageHeight="1100" background="#FFFFFF" math="0" shadow="0">
            <root>
                <mxCell id="0"/>
                <mxCell id="1" parent="0"/>
                <mxCell id="JAychxo9crdE4-j-2Qq6-73" style="edgeStyle=orthogonalEdgeStyle;orthogonalLoop=1;jettySize=auto;html=1;exitX=0.75;exitY=0;exitDx=0;exitDy=0;entryX=0.5;entryY=0;entryDx=0;entryDy=0;shadow=0;fontSize=10;fontColor=#949494;endArrow=open;endFill=0;strokeColor=#B0B0B0;strokeWidth=2;" parent="1" source="JAychxo9crdE4-j-2Qq6-49" target="Jx8LPu8znm7WMN3goJe4-14" edge="1">
                    <mxGeometry relative="1" as="geometry"/>
                </mxCell>
                <mxCell id="oR36HvQrZMrKDbQmu3Ou-8" value="&lt;div&gt;&lt;i&gt;&lt;b&gt;Add wasm &lt;br&gt;&lt;/b&gt;&lt;/i&gt;&lt;/div&gt;&lt;div&gt;&lt;i&gt;&lt;b&gt;plugin support to the &lt;br&gt;&lt;/b&gt;&lt;/i&gt;&lt;/div&gt;&lt;div&gt;&lt;i&gt;&lt;b&gt;geo web vpl&lt;/b&gt;&lt;/i&gt;&lt;/div&gt;" style="shape=parallelogram;perimeter=parallelogramPerimeter;whiteSpace=wrap;html=1;fixedSize=1;fillColor=#f5f5f5;strokeColor=#666666;fontColor=#333333;rounded=1;strokeWidth=3;arcSize=9;shadow=1;fontFamily=Helvetica;" parent="1" vertex="1">
                    <mxGeometry x="120" y="600" width="150" height="80" as="geometry"/>
                </mxCell>
                <mxCell id="oR36HvQrZMrKDbQmu3Ou-9" value="&lt;div&gt;&lt;i&gt;&lt;b&gt;Try to&lt;/b&gt;&lt;/i&gt;&lt;/div&gt;&lt;div&gt;&lt;i&gt;&lt;b&gt;compile CGAL &lt;br&gt;&lt;/b&gt;&lt;/i&gt;&lt;/div&gt;&lt;div&gt;&lt;i&gt;&lt;b&gt;to wasm.&lt;/b&gt;&lt;/i&gt;&lt;/div&gt;" style="shape=parallelogram;perimeter=parallelogramPerimeter;whiteSpace=wrap;html=1;fixedSize=1;fillColor=#f5f5f5;strokeColor=#666666;fontColor=#333333;rounded=1;strokeWidth=3;arcSize=9;shadow=1;fontFamily=Helvetica;" parent="1" vertex="1">
                    <mxGeometry x="270" y="120" width="121" height="80" as="geometry"/>
                </mxCell>
                <mxCell id="oR36HvQrZMrKDbQmu3Ou-10" value="&lt;div&gt;&lt;b&gt;&lt;i&gt;Try to &lt;br&gt;&lt;/i&gt;&lt;/b&gt;&lt;/div&gt;&lt;div&gt;&lt;b&gt;&lt;i&gt;compile a &lt;br&gt;&lt;/i&gt;&lt;/b&gt;&lt;/div&gt;&lt;div&gt;&lt;b&gt;&lt;i&gt;small&amp;nbsp;appliation&amp;nbsp;&lt;br&gt;&lt;/i&gt;&lt;/b&gt;&lt;b&gt;&lt;i&gt;to wasm.&lt;/i&gt;&lt;/b&gt;&lt;/div&gt;" style="shape=parallelogram;perimeter=parallelogramPerimeter;whiteSpace=wrap;html=1;fixedSize=1;rounded=1;strokeWidth=3;arcSize=9;shadow=1;fontFamily=Helvetica;fillColor=#647687;strokeColor=#314354;fontColor=#ffffff;" parent="1" vertex="1">
                    <mxGeometry x="120" y="120" width="160" height="80" as="geometry"/>
                </mxCell>
                <mxCell id="oR36HvQrZMrKDbQmu3Ou-17" value="&lt;font color=&quot;#333333&quot;&gt;&lt;b&gt;&lt;i&gt;&lt;font&gt;Create an application using&lt;br&gt;the environment&lt;/font&gt;&lt;/i&gt;&lt;/b&gt;&lt;/font&gt;" style="shape=parallelogram;perimeter=parallelogramPerimeter;whiteSpace=wrap;html=1;fixedSize=1;fillColor=#f5f5f5;strokeColor=#666666;fontColor=#333333;rounded=1;strokeWidth=3;arcSize=9;shadow=1;fontFamily=Helvetica;" parent="1" vertex="1">
                    <mxGeometry x="120" y="840" width="210" height="80" as="geometry"/>
                </mxCell>
                <mxCell id="oR36HvQrZMrKDbQmu3Ou-19" value="&lt;h1&gt;&lt;i&gt;Phase 1. Compile&lt;/i&gt;&lt;/h1&gt;" style="text;html=1;strokeColor=none;fillColor=none;spacing=5;spacingTop=-20;whiteSpace=wrap;overflow=hidden;fontColor=#575757;rounded=0;rotation=0;fontFamily=Helvetica;" parent="1" vertex="1">
                    <mxGeometry x="145" y="20" width="250" height="40" as="geometry"/>
                </mxCell>
                <mxCell id="oR36HvQrZMrKDbQmu3Ou-21" value="&lt;h1&gt;&lt;i&gt;Phase 2. Interface&lt;br&gt;&lt;/i&gt;&lt;/h1&gt;" style="text;html=1;strokeColor=none;fillColor=none;spacing=5;spacingTop=-20;whiteSpace=wrap;overflow=hidden;fontColor=#575757;rounded=0;fontFamily=Helvetica;" parent="1" vertex="1">
                    <mxGeometry x="145" y="260" width="240" height="35" as="geometry"/>
                </mxCell>
                <mxCell id="JAychxo9crdE4-j-2Qq6-57" style="edgeStyle=orthogonalEdgeStyle;orthogonalLoop=1;jettySize=auto;html=1;exitX=0.5;exitY=0;exitDx=0;exitDy=0;shadow=0;fontSize=10;fontColor=#4D4D4D;endArrow=open;endFill=0;strokeColor=#575757;strokeWidth=2;" parent="1" source="Jx8LPu8znm7WMN3goJe4-1" edge="1">
                    <mxGeometry relative="1" as="geometry">
                        <mxPoint x="700" y="437" as="targetPoint"/>
                        <Array as="points">
                            <mxPoint x="415" y="820"/>
                            <mxPoint x="700" y="820"/>
                            <mxPoint x="700" y="437"/>
                        </Array>
                    </mxGeometry>
                </mxCell>
                <mxCell id="JAychxo9crdE4-j-2Qq6-60" style="edgeStyle=orthogonalEdgeStyle;orthogonalLoop=1;jettySize=auto;html=1;exitX=0.5;exitY=0;exitDx=0;exitDy=0;entryX=0.5;entryY=1;entryDx=0;entryDy=0;shadow=0;fontSize=10;fontColor=#4D4D4D;endArrow=open;endFill=0;strokeColor=#575757;strokeWidth=2;" parent="1" source="Jx8LPu8znm7WMN3goJe4-1" target="Jx8LPu8znm7WMN3goJe4-6" edge="1">
                    <mxGeometry relative="1" as="geometry">
                        <Array as="points">
                            <mxPoint x="415" y="820"/>
                            <mxPoint x="535" y="820"/>
                        </Array>
                    </mxGeometry>
                </mxCell>
                <mxCell id="JAychxo9crdE4-j-2Qq6-64" value="improve toolling" style="edgeLabel;html=1;align=center;verticalAlign=middle;resizable=0;points=[];fontSize=10;fontColor=#4D4D4D;labelBackgroundColor=#FFFFFF;" parent="JAychxo9crdE4-j-2Qq6-60" vertex="1" connectable="0">
                    <mxGeometry x="-0.2738" y="2" relative="1" as="geometry">
                        <mxPoint x="-31" y="-8" as="offset"/>
                    </mxGeometry>
                </mxCell>
                <mxCell id="Jx8LPu8znm7WMN3goJe4-1" value="&lt;b&gt;Compare performance and capabilities &lt;br&gt;to native &lt;br&gt;applications&lt;/b&gt;" style="shape=parallelogram;perimeter=parallelogramPerimeter;whiteSpace=wrap;html=1;fixedSize=1;rounded=1;strokeWidth=3;shadow=1;arcSize=9;fontFamily=Helvetica;fontColor=#ffffff;strokeColor=#005700;fillColor=#008a00;" parent="1" vertex="1">
                    <mxGeometry x="320" y="840" width="190" height="80" as="geometry"/>
                </mxCell>
                <mxCell id="Jx8LPu8znm7WMN3goJe4-5" value="&lt;i&gt;&lt;b&gt;Add the wasm-compiled C++ libraries to the geo web vpl as plugins or dependencies&lt;br&gt;&lt;/b&gt;&lt;/i&gt;" style="shape=parallelogram;perimeter=parallelogramPerimeter;whiteSpace=wrap;html=1;fixedSize=1;fillColor=#f5f5f5;strokeColor=#666666;fontColor=#333333;rounded=1;strokeWidth=3;arcSize=9;shadow=1;fontFamily=Helvetica;" parent="1" vertex="1">
                    <mxGeometry x="259" y="600" width="210" height="80" as="geometry"/>
                </mxCell>
                <mxCell id="JAychxo9crdE4-j-2Qq6-44" style="edgeStyle=orthogonalEdgeStyle;orthogonalLoop=1;jettySize=auto;html=1;exitX=0.5;exitY=0;exitDx=0;exitDy=0;entryX=0.5;entryY=0;entryDx=0;entryDy=0;shadow=0;fontSize=10;fontColor=#4D4D4D;endArrow=open;endFill=0;strokeColor=#575757;strokeWidth=2;" parent="1" source="Jx8LPu8znm7WMN3goJe4-6" target="Jx8LPu8znm7WMN3goJe4-5" edge="1">
                    <mxGeometry relative="1" as="geometry"/>
                </mxCell>
                <mxCell id="JAychxo9crdE4-j-2Qq6-46" style="edgeStyle=orthogonalEdgeStyle;orthogonalLoop=1;jettySize=auto;html=1;exitX=0.5;exitY=0;exitDx=0;exitDy=0;entryX=0.5;entryY=0;entryDx=0;entryDy=0;shadow=0;fontSize=10;fontColor=#4D4D4D;endArrow=open;endFill=0;strokeColor=#575757;strokeWidth=2;" parent="1" source="Jx8LPu8znm7WMN3goJe4-6" target="oR36HvQrZMrKDbQmu3Ou-8" edge="1">
                    <mxGeometry relative="1" as="geometry"/>
                </mxCell>
                <mxCell id="JAychxo9crdE4-j-2Qq6-62" value="optimize for web loading &amp;amp; performance" style="edgeLabel;html=1;align=center;verticalAlign=middle;resizable=0;points=[];fontSize=10;fontColor=#4D4D4D;labelBackgroundColor=#FFFFFF;" parent="JAychxo9crdE4-j-2Qq6-46" vertex="1" connectable="0">
                    <mxGeometry x="-0.3123" y="2" relative="1" as="geometry">
                        <mxPoint x="54" y="-12" as="offset"/>
                    </mxGeometry>
                </mxCell>
                <mxCell id="JAychxo9crdE4-j-2Qq6-48" style="edgeStyle=orthogonalEdgeStyle;orthogonalLoop=1;jettySize=auto;html=1;exitX=0.5;exitY=0;exitDx=0;exitDy=0;entryX=0.5;entryY=1;entryDx=0;entryDy=0;shadow=0;fontSize=10;fontColor=#4D4D4D;endArrow=open;endFill=0;strokeColor=#575757;strokeWidth=2;" parent="1" source="Jx8LPu8znm7WMN3goJe4-6" target="Jx8LPu8znm7WMN3goJe4-22" edge="1">
                    <mxGeometry relative="1" as="geometry">
                        <Array as="points">
                            <mxPoint x="535" y="580"/>
                            <mxPoint x="580" y="580"/>
                            <mxPoint x="580" y="240"/>
                        </Array>
                    </mxGeometry>
                </mxCell>
                <mxCell id="Jx8LPu8znm7WMN3goJe4-6" value="&lt;b&gt;&lt;i&gt;Experiment with &lt;br&gt;different distribution&lt;br&gt;&amp;amp; utilization &lt;br&gt;strategies&lt;/i&gt;&lt;/b&gt;&lt;i&gt;&lt;b&gt;&lt;br&gt;&lt;/b&gt;&lt;/i&gt;" style="shape=parallelogram;perimeter=parallelogramPerimeter;whiteSpace=wrap;html=1;fixedSize=1;rounded=1;strokeWidth=3;arcSize=9;shadow=1;fontFamily=Helvetica;fontColor=#ffffff;strokeColor=#005700;fillColor=#008a00;" parent="1" vertex="1">
                    <mxGeometry x="460" y="600" width="150" height="80" as="geometry"/>
                </mxCell>
                <mxCell id="Jx8LPu8znm7WMN3goJe4-14" value="&lt;b&gt;&lt;i&gt;Develop the basics &lt;br&gt;of a browser-based &lt;br&gt;visual programming &lt;br&gt;language&lt;/i&gt;&lt;/b&gt;" style="shape=parallelogram;perimeter=parallelogramPerimeter;whiteSpace=wrap;html=1;fixedSize=1;rounded=1;strokeWidth=3;arcSize=9;shadow=1;fontFamily=Helvetica;fillColor=#647687;strokeColor=#314354;fontColor=#ffffff;" parent="1" vertex="1">
                    <mxGeometry x="120" y="357" width="160" height="80" as="geometry"/>
                </mxCell>
                <mxCell id="Jx8LPu8znm7WMN3goJe4-15" value="&lt;div&gt;&lt;i&gt;&lt;b&gt;Try to &lt;br&gt;&lt;/b&gt;&lt;/i&gt;&lt;/div&gt;&lt;div&gt;&lt;i&gt;&lt;b&gt;compile GDAL &lt;br&gt;&lt;/b&gt;&lt;/i&gt;&lt;/div&gt;&lt;div&gt;&lt;i&gt;&lt;b&gt;to wasm.&lt;/b&gt;&lt;/i&gt;&lt;/div&gt;" style="shape=parallelogram;perimeter=parallelogramPerimeter;whiteSpace=wrap;html=1;fixedSize=1;fillColor=#f5f5f5;strokeColor=#666666;fontColor=#333333;rounded=1;strokeWidth=3;arcSize=9;shadow=1;fontFamily=Helvetica;" parent="1" vertex="1">
                    <mxGeometry x="378" y="120" width="115" height="80" as="geometry"/>
                </mxCell>
                <mxCell id="n1NXSLkz1-SfZJEVITjv-17" value="&lt;b&gt;&lt;i&gt;Discuss what this&lt;br&gt;means for the &lt;br&gt;geospatial community&lt;br&gt;&lt;/i&gt;&lt;/b&gt;" style="shape=parallelogram;perimeter=parallelogramPerimeter;whiteSpace=wrap;html=1;fixedSize=1;rounded=1;strokeWidth=3;arcSize=9;shadow=1;fontFamily=Helvetica;fontColor=#ffffff;strokeColor=#A50040;fillColor=#d80073;" parent="1" vertex="1">
                    <mxGeometry x="499" y="840" width="170" height="80" as="geometry"/>
                </mxCell>
                <mxCell id="n1NXSLkz1-SfZJEVITjv-22" value="&lt;b&gt;&lt;i&gt;Side product:&lt;br&gt;&lt;/i&gt;&lt;/b&gt;&lt;b&gt;&lt;i&gt;Example projects utilizing&amp;nbsp;&lt;br&gt;the vpl environment&lt;br&gt;&lt;/i&gt;&lt;/b&gt;" style="shape=parallelogram;perimeter=parallelogramPerimeter;whiteSpace=wrap;html=1;fixedSize=1;rounded=1;strokeWidth=3;arcSize=9;shadow=1;fontFamily=Helvetica;fontColor=#ffffff;strokeColor=#001DBC;fillColor=#0050ef;" parent="1" vertex="1">
                    <mxGeometry x="659" y="840" width="185" height="80" as="geometry"/>
                </mxCell>
                <mxCell id="n1NXSLkz1-SfZJEVITjv-25" style="edgeStyle=orthogonalEdgeStyle;orthogonalLoop=1;jettySize=auto;html=1;exitX=1;exitY=0.5;exitDx=0;exitDy=0;entryX=0;entryY=0.75;entryDx=0;entryDy=0;shadow=0;fontColor=#333333;endArrow=open;endFill=0;strokeColor=#575757;strokeWidth=4;fontFamily=Helvetica;" parent="1" source="n1NXSLkz1-SfZJEVITjv-23" target="oR36HvQrZMrKDbQmu3Ou-8" edge="1">
                    <mxGeometry relative="1" as="geometry">
                        <Array as="points">
                            <mxPoint x="980" y="160"/>
                            <mxPoint x="980" y="217"/>
                            <mxPoint x="60" y="217"/>
                            <mxPoint x="60" y="659"/>
                        </Array>
                    </mxGeometry>
                </mxCell>
                <mxCell id="n1NXSLkz1-SfZJEVITjv-28" value="&lt;b&gt;&lt;i&gt;Add general &lt;br&gt;geometry&lt;br&gt;processing &amp;amp; visualization &lt;br&gt;support&lt;/i&gt;&lt;/b&gt;" style="shape=parallelogram;perimeter=parallelogramPerimeter;whiteSpace=wrap;html=1;fixedSize=1;fillColor=#f5f5f5;strokeColor=#666666;fontColor=#333333;rounded=1;strokeWidth=3;arcSize=9;shadow=1;fontFamily=Helvetica;" parent="1" vertex="1">
                    <mxGeometry x="300" y="357" width="140" height="80" as="geometry"/>
                </mxCell>
                <mxCell id="n1NXSLkz1-SfZJEVITjv-29" value="&lt;b&gt;&lt;i&gt;Add Input&lt;br&gt;&amp;nbsp;functionalities&lt;br&gt;&amp;nbsp;including WFS and&lt;br&gt;&amp;nbsp;WMS&lt;/i&gt;&lt;/b&gt;" style="shape=parallelogram;perimeter=parallelogramPerimeter;whiteSpace=wrap;html=1;fixedSize=1;fillColor=#f5f5f5;strokeColor=#666666;fontColor=#333333;rounded=1;strokeWidth=3;arcSize=9;shadow=1;fontFamily=Helvetica;" parent="1" vertex="1">
                    <mxGeometry x="460" y="357" width="150" height="80" as="geometry"/>
                </mxCell>
                <mxCell id="n1NXSLkz1-SfZJEVITjv-30" value="&lt;b&gt;&lt;i&gt;Choose an effective&lt;br&gt;method, and explain why&lt;br&gt;&lt;/i&gt;&lt;/b&gt;" style="shape=parallelogram;perimeter=parallelogramPerimeter;whiteSpace=wrap;html=1;fixedSize=1;rounded=1;strokeWidth=3;arcSize=9;shadow=1;fontFamily=Helvetica;fontColor=#ffffff;strokeColor=#A50040;fillColor=#d80073;" parent="1" vertex="1">
                    <mxGeometry x="600" y="600" width="185" height="80" as="geometry"/>
                </mxCell>
                <mxCell id="JAychxo9crdE4-j-2Qq6-14" style="edgeStyle=orthogonalEdgeStyle;orthogonalLoop=1;jettySize=auto;html=1;exitX=1;exitY=0.5;exitDx=0;exitDy=0;entryX=0;entryY=0.5;entryDx=0;entryDy=0;shadow=0;endArrow=open;endFill=0;strokeColor=#575757;strokeWidth=4;" parent="1" source="n1NXSLkz1-SfZJEVITjv-31" target="oR36HvQrZMrKDbQmu3Ou-17" edge="1">
                    <mxGeometry relative="1" as="geometry">
                        <mxPoint x="130" y="840" as="targetPoint"/>
                        <Array as="points">
                            <mxPoint x="1000" y="640"/>
                            <mxPoint x="1000" y="700"/>
                            <mxPoint x="60" y="700"/>
                            <mxPoint x="60" y="880"/>
                        </Array>
                    </mxGeometry>
                </mxCell>
                <mxCell id="n1NXSLkz1-SfZJEVITjv-31" value="&lt;b&gt;&lt;i&gt;Side product:&lt;br&gt;&lt;/i&gt;&lt;/b&gt;&lt;b&gt;&lt;i&gt;A &quot;geo-web-vpl&quot; with&amp;nbsp;&lt;br&gt;GDAL &amp;amp; CGAL support&lt;br&gt;&lt;/i&gt;&lt;/b&gt;" style="shape=parallelogram;perimeter=parallelogramPerimeter;whiteSpace=wrap;html=1;fixedSize=1;rounded=1;strokeWidth=3;arcSize=9;shadow=1;fontFamily=Helvetica;fontColor=#ffffff;strokeColor=#001DBC;fillColor=#0050ef;" parent="1" vertex="1">
                    <mxGeometry x="775" y="600" width="185" height="80" as="geometry"/>
                </mxCell>
                <mxCell id="n1NXSLkz1-SfZJEVITjv-34" value="&lt;b&gt;&lt;i&gt;Examine the state of &lt;br&gt;this environment as &lt;br&gt;it is right now&lt;br&gt;&lt;/i&gt;&lt;/b&gt;" style="shape=parallelogram;perimeter=parallelogramPerimeter;whiteSpace=wrap;html=1;fixedSize=1;rounded=1;strokeWidth=3;arcSize=9;shadow=1;fontFamily=Helvetica;gradientDirection=west;fontColor=#ffffff;strokeColor=#A50040;fillColor=#d80073;" parent="1" vertex="1">
                    <mxGeometry x="801" y="357" width="160" height="80" as="geometry"/>
                </mxCell>
                <mxCell id="n1NXSLkz1-SfZJEVITjv-36" style="edgeStyle=orthogonalEdgeStyle;orthogonalLoop=1;jettySize=auto;html=1;exitX=1;exitY=0.5;exitDx=0;exitDy=0;entryX=0;entryY=0.25;entryDx=0;entryDy=0;shadow=0;fontFamily=Helvetica;fontColor=#333333;endArrow=open;endFill=0;strokeColor=#575757;strokeWidth=4;" parent="1" source="n1NXSLkz1-SfZJEVITjv-35" target="oR36HvQrZMrKDbQmu3Ou-8" edge="1">
                    <mxGeometry relative="1" as="geometry">
                        <Array as="points">
                            <mxPoint x="1140" y="397"/>
                            <mxPoint x="1140" y="457"/>
                            <mxPoint x="100" y="457"/>
                            <mxPoint x="100" y="624"/>
                        </Array>
                    </mxGeometry>
                </mxCell>
                <mxCell id="n1NXSLkz1-SfZJEVITjv-35" value="&lt;b&gt;&lt;i&gt;Side product:&lt;br&gt;&lt;/i&gt;&lt;/b&gt;&lt;b&gt;&lt;i&gt;A &quot;web-vpl&quot;&lt;br&gt;environment&lt;br&gt;&lt;/i&gt;&lt;/b&gt;" style="shape=parallelogram;perimeter=parallelogramPerimeter;whiteSpace=wrap;html=1;fixedSize=1;rounded=1;strokeWidth=3;arcSize=9;shadow=1;fontFamily=Helvetica;fontColor=#ffffff;strokeColor=#001DBC;fillColor=#0050ef;" parent="1" vertex="1">
                    <mxGeometry x="951" y="357" width="185" height="80" as="geometry"/>
                </mxCell>
                <mxCell id="JAychxo9crdE4-j-2Qq6-11" value="&lt;b&gt;&lt;i&gt;Add auxiliary&lt;br&gt;functionalities like compile &lt;br&gt;to application&lt;br&gt;&lt;/i&gt;&lt;/b&gt;" style="shape=parallelogram;perimeter=parallelogramPerimeter;whiteSpace=wrap;html=1;fixedSize=1;fillColor=#f5f5f5;strokeColor=#666666;fontColor=#333333;rounded=1;strokeWidth=3;arcSize=9;shadow=1;fontFamily=Helvetica;" parent="1" vertex="1">
                    <mxGeometry x="631.5" y="357" width="150" height="80" as="geometry"/>
                </mxCell>
                <mxCell id="JAychxo9crdE4-j-2Qq6-15" value="" style="group;fontColor=#575757;" parent="1" vertex="1" connectable="0">
                    <mxGeometry x="769" y="988" width="390" height="150" as="geometry"/>
                </mxCell>
                <mxCell id="n1NXSLkz1-SfZJEVITjv-26" value="" style="shape=parallelogram;perimeter=parallelogramPerimeter;whiteSpace=wrap;html=1;fixedSize=1;rounded=1;strokeWidth=3;arcSize=10;shadow=1;size=10;fontFamily=Helvetica;container=0;fillColor=#647687;strokeColor=#314354;fontColor=#ffffff;" parent="JAychxo9crdE4-j-2Qq6-15" vertex="1">
                    <mxGeometry x="100" y="15" width="50" height="20" as="geometry"/>
                </mxCell>
                <mxCell id="n1NXSLkz1-SfZJEVITjv-27" value="&lt;div&gt;&lt;b&gt;&lt;i&gt;Completed Preliminary work&lt;/i&gt;&lt;/b&gt;&lt;/div&gt;" style="text;html=1;strokeColor=none;fillColor=none;align=left;verticalAlign=middle;whiteSpace=wrap;rounded=0;shadow=1;fontColor=#575757;fontFamily=Helvetica;" parent="JAychxo9crdE4-j-2Qq6-15" vertex="1">
                    <mxGeometry x="160" y="10" width="190" height="30" as="geometry"/>
                </mxCell>
                <mxCell id="n1NXSLkz1-SfZJEVITjv-3" value="" style="shape=parallelogram;perimeter=parallelogramPerimeter;whiteSpace=wrap;html=1;fixedSize=1;fillColor=#f5f5f5;strokeColor=#666666;fontColor=#333333;rounded=1;strokeWidth=3;arcSize=10;shadow=1;size=10;fontFamily=Helvetica;container=0;" parent="JAychxo9crdE4-j-2Qq6-15" vertex="1">
                    <mxGeometry x="100" y="45" width="50" height="20" as="geometry"/>
                </mxCell>
                <mxCell id="n1NXSLkz1-SfZJEVITjv-6" value="" style="shape=parallelogram;perimeter=parallelogramPerimeter;whiteSpace=wrap;html=1;fixedSize=1;rounded=1;strokeWidth=3;arcSize=10;shadow=1;size=10;fontFamily=Helvetica;container=0;strokeColor=#005700;fillColor=#008a00;fontColor=#ffffff;" parent="JAychxo9crdE4-j-2Qq6-15" vertex="1">
                    <mxGeometry x="100" y="75" width="50" height="20" as="geometry"/>
                </mxCell>
                <mxCell id="n1NXSLkz1-SfZJEVITjv-7" value="" style="shape=parallelogram;perimeter=parallelogramPerimeter;whiteSpace=wrap;html=1;fixedSize=1;rounded=1;strokeWidth=3;arcSize=10;shadow=1;size=10;fontFamily=Helvetica;container=0;strokeColor=#A50040;fillColor=#d80073;fontColor=#ffffff;" parent="JAychxo9crdE4-j-2Qq6-15" vertex="1">
                    <mxGeometry x="100" y="105" width="50" height="20" as="geometry"/>
                </mxCell>
                <mxCell id="n1NXSLkz1-SfZJEVITjv-16" value="&lt;div&gt;&lt;b&gt;&lt;i&gt;Development&amp;nbsp;&lt;/i&gt;&lt;/b&gt;&lt;/div&gt;" style="text;html=1;strokeColor=none;fillColor=none;align=left;verticalAlign=middle;whiteSpace=wrap;rounded=0;shadow=1;fontColor=#575757;fontFamily=Helvetica;container=0;" parent="JAychxo9crdE4-j-2Qq6-15" vertex="1">
                    <mxGeometry x="160" y="40" width="220" height="30" as="geometry"/>
                </mxCell>
                <mxCell id="n1NXSLkz1-SfZJEVITjv-18" value="&lt;div&gt;&lt;b&gt;&lt;i&gt;Benchmark &amp;amp; Analysis&lt;/i&gt;&lt;/b&gt;&lt;/div&gt;" style="text;html=1;strokeColor=none;fillColor=none;align=left;verticalAlign=middle;whiteSpace=wrap;rounded=0;shadow=1;fontColor=#575757;fontFamily=Helvetica;container=0;" parent="JAychxo9crdE4-j-2Qq6-15" vertex="1">
                    <mxGeometry x="160" y="70" width="220" height="30" as="geometry"/>
                </mxCell>
                <mxCell id="n1NXSLkz1-SfZJEVITjv-19" value="&lt;div&gt;&lt;b&gt;&lt;i&gt;Conclusion&lt;/i&gt;&lt;/b&gt;&lt;/div&gt;" style="text;html=1;strokeColor=none;fillColor=none;align=left;verticalAlign=middle;whiteSpace=wrap;rounded=0;shadow=1;fontColor=#575757;fontFamily=Helvetica;container=0;" parent="JAychxo9crdE4-j-2Qq6-15" vertex="1">
                    <mxGeometry x="160" y="100" width="220" height="30" as="geometry"/>
                </mxCell>
                <mxCell id="n1NXSLkz1-SfZJEVITjv-20" value="" style="shape=parallelogram;perimeter=parallelogramPerimeter;whiteSpace=wrap;html=1;fixedSize=1;rounded=1;strokeWidth=3;arcSize=10;shadow=1;size=10;fontFamily=Helvetica;container=0;strokeColor=#001DBC;fillColor=#0050ef;fontColor=#ffffff;" parent="JAychxo9crdE4-j-2Qq6-15" vertex="1">
                    <mxGeometry x="100" y="135" width="50" height="20" as="geometry"/>
                </mxCell>
                <mxCell id="n1NXSLkz1-SfZJEVITjv-21" value="&lt;div&gt;&lt;b&gt;&lt;i&gt;SIde Products&lt;/i&gt;&lt;/b&gt;&lt;/div&gt;" style="text;html=1;strokeColor=none;fillColor=none;align=left;verticalAlign=middle;whiteSpace=wrap;rounded=0;shadow=1;fontColor=#575757;fontFamily=Helvetica;container=0;" parent="JAychxo9crdE4-j-2Qq6-15" vertex="1">
                    <mxGeometry x="160" y="130" width="220" height="30" as="geometry"/>
                </mxCell>
                <mxCell id="JAychxo9crdE4-j-2Qq6-21" value="&lt;h1 style=&quot;font-size: 13px&quot;&gt;&lt;span style=&quot;font-weight: normal&quot;&gt;&lt;i&gt;&lt;font style=&quot;font-size: 13px&quot;&gt;What is the most&amp;nbsp;&lt;/font&gt;fitting&amp;nbsp;&lt;font style=&quot;font-size: 13px&quot;&gt;methodology of compiling C++ geoprocessing libraries to WebAssembly?&lt;/font&gt;&lt;/i&gt;&lt;/span&gt;&lt;br&gt;&lt;/h1&gt;" style="text;html=1;strokeColor=none;fillColor=none;spacing=5;spacingTop=-20;whiteSpace=wrap;overflow=hidden;fontColor=#575757;rounded=0;rotation=0;fontFamily=Helvetica;align=left;verticalAlign=bottom;fontSize=12;" parent="1" vertex="1">
                    <mxGeometry x="141" y="47" width="760" height="35" as="geometry"/>
                </mxCell>
                <mxCell id="JAychxo9crdE4-j-2Qq6-22" value="&lt;h1&gt;&lt;span style=&quot;font-weight: 400&quot;&gt;&lt;i&gt;&lt;font style=&quot;font-size: 13px&quot;&gt;&amp;nbsp;How to design and create a client-side geoprocessing interface?&lt;/font&gt;&lt;/i&gt;&lt;/span&gt;&lt;br style=&quot;font-size: 12px&quot;&gt;&lt;/h1&gt;" style="text;html=1;strokeColor=none;fillColor=none;spacing=5;spacingTop=-20;whiteSpace=wrap;overflow=hidden;fontColor=#575757;rounded=0;rotation=0;fontFamily=Helvetica;align=left;verticalAlign=bottom;fontSize=12;" parent="1" vertex="1">
                    <mxGeometry x="137" y="283" width="680" height="32" as="geometry"/>
                </mxCell>
                <mxCell id="JAychxo9crdE4-j-2Qq6-23" value="&lt;h1&gt;&lt;span style=&quot;font-size: 13px ; font-weight: 400&quot;&gt;&lt;i&gt;How can wasm-compiled geoprocessing libraries be distributed and used in a client=-side geoprocessing interface?&lt;/i&gt;&lt;/span&gt;&lt;br style=&quot;font-size: 12px&quot;&gt;&lt;/h1&gt;" style="text;html=1;strokeColor=none;fillColor=none;spacing=5;spacingTop=-20;whiteSpace=wrap;overflow=hidden;fontColor=#575757;rounded=0;rotation=0;fontFamily=Helvetica;align=left;verticalAlign=bottom;fontSize=12;labelBackgroundColor=default;" parent="1" vertex="1">
                    <mxGeometry x="141" y="520" width="869" height="40" as="geometry"/>
                </mxCell>
                <mxCell id="JAychxo9crdE4-j-2Qq6-25" value="&lt;h1 style=&quot;font-size: 13px&quot;&gt;&lt;span style=&quot;font-weight: 400&quot;&gt;&lt;i&gt;&lt;font style=&quot;font-size: 13px&quot;&gt;What are the advantages and disadvantages of GIS applications created&amp;nbsp;&lt;/font&gt;&lt;/i&gt;&lt;/span&gt;&lt;i style=&quot;font-weight: 400&quot;&gt;using a client-side geoprocessing environment powered by WebAssembly?&lt;/i&gt;&lt;/h1&gt;" style="text;html=1;strokeColor=none;fillColor=none;spacing=5;spacingTop=-20;whiteSpace=wrap;overflow=hidden;fontColor=#575757;rounded=0;rotation=0;fontFamily=Helvetica;align=left;verticalAlign=bottom;fontSize=12;labelBackgroundColor=default;" parent="1" vertex="1">
                    <mxGeometry x="145" y="742" width="961" height="60" as="geometry"/>
                </mxCell>
                <mxCell id="n1NXSLkz1-SfZJEVITjv-23" value="&lt;b&gt;&lt;i&gt;Side product:&lt;br&gt;GDAL &amp;amp; CGAL&lt;br&gt;compiled &lt;br&gt;to wasm&lt;br&gt;&lt;/i&gt;&lt;/b&gt;" style="shape=parallelogram;perimeter=parallelogramPerimeter;whiteSpace=wrap;html=1;fixedSize=1;rounded=1;strokeWidth=3;arcSize=9;shadow=1;fontFamily=Helvetica;fontColor=#ffffff;strokeColor=#001DBC;fillColor=#0050ef;" parent="1" vertex="1">
                    <mxGeometry x="831" y="120" width="138" height="80" as="geometry"/>
                </mxCell>
                <mxCell id="Jx8LPu8znm7WMN3goJe4-21" value="&lt;div&gt;&lt;i&gt;&lt;b&gt;Define a guide&lt;br&gt;&lt;/b&gt;&lt;/i&gt;&lt;/div&gt;&lt;div&gt;&lt;i&gt;&lt;b&gt;of compiling large &lt;br&gt;(C++) geo libraries&amp;nbsp;&lt;/b&gt;&lt;/i&gt;&lt;/div&gt;&lt;div&gt;&lt;i&gt;&lt;b&gt;to Wasm&lt;/b&gt;&lt;/i&gt;&lt;/div&gt;" style="shape=parallelogram;perimeter=parallelogramPerimeter;whiteSpace=wrap;html=1;fixedSize=1;rounded=1;strokeWidth=3;arcSize=9;shadow=1;fontFamily=Helvetica;fontColor=#ffffff;strokeColor=#A50040;fillColor=#d80073;" parent="1" vertex="1">
                    <mxGeometry x="668" y="120" width="175" height="80" as="geometry"/>
                </mxCell>
                <mxCell id="JAychxo9crdE4-j-2Qq6-45" style="edgeStyle=orthogonalEdgeStyle;orthogonalLoop=1;jettySize=auto;html=1;exitX=0.5;exitY=0;exitDx=0;exitDy=0;entryX=0.5;entryY=0;entryDx=0;entryDy=0;shadow=0;fontSize=10;fontColor=#4D4D4D;endArrow=open;endFill=0;strokeColor=#575757;strokeWidth=2;" parent="1" source="Jx8LPu8znm7WMN3goJe4-22" target="oR36HvQrZMrKDbQmu3Ou-9" edge="1">
                    <mxGeometry relative="1" as="geometry"/>
                </mxCell>
                <mxCell id="Jx8LPu8znm7WMN3goJe4-22" value="&lt;b&gt;&lt;i&gt;Experiment and compare &lt;br&gt;different compilation &lt;br&gt;methods and settings&lt;br&gt;&lt;/i&gt;&lt;/b&gt;" style="shape=parallelogram;perimeter=parallelogramPerimeter;whiteSpace=wrap;html=1;fixedSize=1;rounded=1;strokeWidth=3;arcSize=9;shadow=1;fontFamily=Helvetica;fontColor=#ffffff;strokeColor=#005700;fillColor=#008a00;" parent="1" vertex="1">
                    <mxGeometry x="480" y="120" width="199" height="80" as="geometry"/>
                </mxCell>
                <mxCell id="JAychxo9crdE4-j-2Qq6-33" style="edgeStyle=orthogonalEdgeStyle;orthogonalLoop=1;jettySize=auto;html=1;exitX=0.5;exitY=0;exitDx=0;exitDy=0;entryX=0.5;entryY=0;entryDx=0;entryDy=0;shadow=0;fontSize=12;fontColor=#4D4D4D;endArrow=open;endFill=0;strokeColor=#575757;strokeWidth=2;" parent="1" source="Jx8LPu8znm7WMN3goJe4-22" target="Jx8LPu8znm7WMN3goJe4-15" edge="1">
                    <mxGeometry relative="1" as="geometry">
                        <mxPoint x="699" y="120" as="sourcePoint"/>
                        <Array as="points">
                            <mxPoint x="580" y="100"/>
                            <mxPoint x="436" y="100"/>
                        </Array>
                    </mxGeometry>
                </mxCell>
                <mxCell id="JAychxo9crdE4-j-2Qq6-61" value="optimize for cli performance" style="edgeLabel;html=1;align=center;verticalAlign=middle;resizable=0;points=[];fontSize=10;fontColor=#4D4D4D;labelBackgroundColor=#FFFFFF;" parent="JAychxo9crdE4-j-2Qq6-33" vertex="1" connectable="0">
                    <mxGeometry x="0.453" y="-2" relative="1" as="geometry">
                        <mxPoint x="-30" y="-8" as="offset"/>
                    </mxGeometry>
                </mxCell>
                <mxCell id="JAychxo9crdE4-j-2Qq6-40" style="edgeStyle=orthogonalEdgeStyle;orthogonalLoop=1;jettySize=auto;html=1;exitX=0.75;exitY=0;exitDx=0;exitDy=0;entryX=0.5;entryY=0;entryDx=0;entryDy=0;shadow=0;fontSize=12;fontColor=#4D4D4D;endArrow=open;endFill=0;strokeColor=#575757;strokeWidth=2;" parent="1" source="JAychxo9crdE4-j-2Qq6-34" target="Jx8LPu8znm7WMN3goJe4-14" edge="1">
                    <mxGeometry relative="1" as="geometry"/>
                </mxCell>
                <mxCell id="JAychxo9crdE4-j-2Qq6-65" value="ensure language is performant" style="edgeLabel;html=1;align=center;verticalAlign=middle;resizable=0;points=[];fontSize=10;fontColor=#4D4D4D;labelBackgroundColor=#FFFFFF;" parent="JAychxo9crdE4-j-2Qq6-40" vertex="1" connectable="0">
                    <mxGeometry x="0.2738" y="-1" relative="1" as="geometry">
                        <mxPoint x="20" y="-8" as="offset"/>
                    </mxGeometry>
                </mxCell>
                <mxCell id="JAychxo9crdE4-j-2Qq6-34" value="&lt;b&gt;&lt;i&gt;&lt;br&gt;&lt;/i&gt;&lt;/b&gt;" style="shape=parallelogram;perimeter=parallelogramPerimeter;whiteSpace=wrap;html=1;fixedSize=1;rounded=1;strokeWidth=3;arcSize=9;shadow=1;fontFamily=Helvetica;strokeColor=#005700;fillColor=#008a00;fontColor=#ffffff;" parent="1" vertex="1">
                    <mxGeometry x="270" y="357" width="40" height="80" as="geometry"/>
                </mxCell>
                <mxCell id="JAychxo9crdE4-j-2Qq6-39" style="edgeStyle=orthogonalEdgeStyle;orthogonalLoop=1;jettySize=auto;html=1;exitX=0.75;exitY=0;exitDx=0;exitDy=0;entryX=0.5;entryY=0;entryDx=0;entryDy=0;shadow=0;fontSize=12;fontColor=#4D4D4D;endArrow=open;endFill=0;strokeColor=#575757;strokeWidth=2;" parent="1" source="JAychxo9crdE4-j-2Qq6-35" target="n1NXSLkz1-SfZJEVITjv-28" edge="1">
                    <mxGeometry relative="1" as="geometry"/>
                </mxCell>
                <mxCell id="JAychxo9crdE4-j-2Qq6-63" value="ensure fast visuals" style="edgeLabel;html=1;align=center;verticalAlign=middle;resizable=0;points=[];fontSize=10;fontColor=#4D4D4D;labelBackgroundColor=#FFFFFF;" parent="JAychxo9crdE4-j-2Qq6-39" vertex="1" connectable="0">
                    <mxGeometry x="0.186" y="-2" relative="1" as="geometry">
                        <mxPoint x="13" y="-7" as="offset"/>
                    </mxGeometry>
                </mxCell>
                <mxCell id="JAychxo9crdE4-j-2Qq6-35" value="&lt;b&gt;&lt;i&gt;&lt;br&gt;&lt;/i&gt;&lt;/b&gt;" style="shape=parallelogram;perimeter=parallelogramPerimeter;whiteSpace=wrap;html=1;fixedSize=1;rounded=1;strokeWidth=3;arcSize=9;shadow=1;fontFamily=Helvetica;strokeColor=#005700;fillColor=#008a00;fontColor=#ffffff;" parent="1" vertex="1">
                    <mxGeometry x="429" y="357" width="40" height="80" as="geometry"/>
                </mxCell>
                <mxCell id="JAychxo9crdE4-j-2Qq6-43" style="edgeStyle=orthogonalEdgeStyle;orthogonalLoop=1;jettySize=auto;html=1;exitX=0.75;exitY=0;exitDx=0;exitDy=0;entryX=0.5;entryY=0;entryDx=0;entryDy=0;shadow=0;fontSize=10;fontColor=#4D4D4D;endArrow=open;endFill=0;strokeColor=#575757;strokeWidth=2;" parent="1" source="JAychxo9crdE4-j-2Qq6-36" target="n1NXSLkz1-SfZJEVITjv-29" edge="1">
                    <mxGeometry relative="1" as="geometry">
                        <Array as="points">
                            <mxPoint x="630" y="337"/>
                            <mxPoint x="535" y="337"/>
                        </Array>
                    </mxGeometry>
                </mxCell>
                <mxCell id="JAychxo9crdE4-j-2Qq6-69" value="&lt;font style=&quot;font-size: 10px&quot;&gt;ensure tools are well-integrated&lt;/font&gt;" style="edgeLabel;html=1;align=center;verticalAlign=middle;resizable=0;points=[];fontSize=13;fontColor=#4D4D4D;labelBackgroundColor=#FFFFFF;" parent="JAychxo9crdE4-j-2Qq6-43" vertex="1" connectable="0">
                    <mxGeometry x="0.1506" y="-1" relative="1" as="geometry">
                        <mxPoint x="87" y="-9" as="offset"/>
                    </mxGeometry>
                </mxCell>
                <mxCell id="JAychxo9crdE4-j-2Qq6-36" value="&lt;b&gt;&lt;i&gt;&lt;br&gt;&lt;/i&gt;&lt;/b&gt;" style="shape=parallelogram;perimeter=parallelogramPerimeter;whiteSpace=wrap;html=1;fixedSize=1;rounded=1;strokeWidth=3;arcSize=9;shadow=1;fontFamily=Helvetica;strokeColor=#005700;fillColor=#008a00;fontColor=#ffffff;" parent="1" vertex="1">
                    <mxGeometry x="600" y="357" width="40" height="80" as="geometry"/>
                </mxCell>
                <mxCell id="oR36HvQrZMrKDbQmu3Ou-23" value="&lt;h1&gt;&lt;i&gt;Phase 3.&amp;nbsp;Distribute&lt;/i&gt;&lt;/h1&gt;" style="text;html=1;strokeColor=none;fillColor=none;spacing=5;spacingTop=-20;whiteSpace=wrap;overflow=hidden;fontColor=#575757;rounded=0;fontFamily=Helvetica;" parent="1" vertex="1">
                    <mxGeometry x="145" y="497" width="260" height="40" as="geometry"/>
                </mxCell>
                <mxCell id="JAychxo9crdE4-j-2Qq6-50" style="edgeStyle=orthogonalEdgeStyle;orthogonalLoop=1;jettySize=auto;html=1;exitX=0.75;exitY=0;exitDx=0;exitDy=0;entryX=0.5;entryY=0;entryDx=0;entryDy=0;shadow=0;fontSize=10;fontColor=#4D4D4D;endArrow=open;endFill=0;strokeColor=#575757;strokeWidth=2;" parent="1" source="JAychxo9crdE4-j-2Qq6-49" target="JAychxo9crdE4-j-2Qq6-11" edge="1">
                    <mxGeometry relative="1" as="geometry"/>
                </mxCell>
                <mxCell id="JAychxo9crdE4-j-2Qq6-49" value="&lt;b&gt;&lt;i&gt;&lt;br&gt;&lt;/i&gt;&lt;/b&gt;" style="shape=parallelogram;perimeter=parallelogramPerimeter;whiteSpace=wrap;html=1;fixedSize=1;rounded=1;strokeWidth=3;arcSize=9;shadow=1;fontFamily=Helvetica;strokeColor=#005700;fillColor=#008a00;fontColor=#ffffff;" parent="1" vertex="1">
                    <mxGeometry x="770" y="357" width="40" height="80" as="geometry"/>
                </mxCell>
                <mxCell id="oR36HvQrZMrKDbQmu3Ou-24" value="&lt;h1&gt;&lt;i&gt;Phase 4. Utilize&lt;/i&gt;&lt;/h1&gt;" style="text;html=1;strokeColor=none;fillColor=none;spacing=5;spacingTop=-20;whiteSpace=wrap;overflow=hidden;fontColor=#575757;rounded=0;fontFamily=Helvetica;" parent="1" vertex="1">
                    <mxGeometry x="149" y="740" width="256" height="40" as="geometry"/>
                </mxCell>
            </root>
        </mxGraphModel>
    </diagram>
</mxfile>